<svg width="70" height="70" viewBox="0 0 70 70" fill="none" xmlns="http://www.w3.org/2000/svg">
<g clip-path="url(#clip0_54_180)">
<rect width="70" height="70" fill="#F18D8D"/>
<rect width="75" height="75" fill="#0B0412"/>
<g clip-path="url(#clip1_54_180)">
<path d="M49.923 16.8H25.0801C23.6281 16.8049 22.2371 17.3838 21.2104 18.4104C20.1837 19.4371 19.6048 20.8282 19.6 22.2801V52.9684C19.6 53.2591 19.7155 53.5379 19.921 53.7434C20.1266 53.9489 20.4053 54.0644 20.696 54.0644H47.0003C47.291 54.0644 47.5697 53.9489 47.7753 53.7434C47.9808 53.5379 48.0963 53.2591 48.0963 52.9684C48.0963 52.6777 47.9808 52.399 47.7753 52.1934C47.5697 51.9879 47.291 51.8724 47.0003 51.8724H21.792V51.5071C21.7968 50.6365 22.1448 49.803 22.7604 49.1874C23.376 48.5718 24.2095 48.2238 25.0801 48.219H49.923C50.2137 48.219 50.4924 48.1036 50.698 47.898C50.9035 47.6925 51.019 47.4137 51.019 47.123V17.8961C51.019 17.6054 50.9035 17.3266 50.698 17.1211C50.4924 16.9155 50.2137 16.8 49.923 16.8ZM48.827 46.027H25.0801C23.8937 46.023 22.7387 46.408 21.792 47.123V22.2801C21.7968 21.4095 22.1448 20.576 22.7604 19.9604C23.376 19.3448 24.2095 18.9969 25.0801 18.9921H48.827V46.027Z" fill="white"/>
<path d="M28.3694 21.6249L29.4584 24.5164L32.3499 25.6054L29.4584 26.6944L28.3694 29.5858L27.2804 26.6944L24.3889 25.6054L27.2804 24.5164L28.3694 21.6249ZM28.3694 17.344L26.1163 23.3523L20.108 25.6054L26.1163 27.8585L28.3694 33.8667L30.6225 27.8585L36.6308 25.6054L30.6225 23.3523L28.3694 17.344Z" fill="white"/>
</g>
</g>
<rect x="0.5" y="0.5" width="69" height="69" rx="19.5" stroke="white" stroke-opacity="0.2"/>
<defs>
<clipPath id="clip0_54_180">
<rect width="70" height="70" rx="20" fill="white"/>
</clipPath>
<clipPath id="clip1_54_180">
<rect width="31.419" height="37.2644" fill="white" transform="translate(19.6 16.8)"/>
</clipPath>
</defs>
</svg>
